# 3ds Max Wavefront OBJ Exporter v0.97b - (c)2007 guruware
# File Created: 09.03.2017 15:25:37

mtllib ai_attack_unit_01.mtl

#
# object ai_attack_unit_01
#

v  83.8359 0.0000 -0.0000
v  72.6040 0.0000 -41.9179
v  98.5944 20.3982 -56.9235
v  113.8470 20.3982 -0.0000
v  41.9179 0.0000 -72.6040
v  56.9235 20.3982 -98.5944
v  -0.0000 0.0000 -83.8359
v  -0.0000 20.3982 -113.8470
v  -41.9180 0.0000 -72.6040
v  -56.9235 20.3982 -98.5944
v  -72.6040 0.0000 -41.9180
v  -98.5944 20.3982 -56.9235
v  -83.8359 0.0000 -0.0000
v  -113.8470 20.3982 -0.0000
v  -72.6040 0.0000 41.9179
v  -98.5944 20.3982 56.9235
v  -41.9180 0.0000 72.6040
v  -56.9236 20.3982 98.5944
v  -0.0000 0.0000 83.8359
v  -0.0001 20.3982 113.8470
v  41.9179 0.0000 72.6040
v  56.9235 20.3982 98.5945
v  72.6040 0.0000 41.9180
v  98.5944 20.3982 56.9236
v  98.5944 54.1374 -56.9235
v  113.8471 54.1374 -0.0000
v  107.5647 20.3982 -65.8938
v  65.8938 20.3982 -107.5647
v  65.8938 54.1374 -107.5648
v  107.5647 54.1374 -65.8938
v  -0.0000 54.1374 -113.8471
v  56.9235 54.1374 -98.5944
v  -3.2834 20.3982 -126.1007
v  -60.2069 20.3982 -110.8481
v  -60.2069 54.1374 -110.8481
v  -3.2834 54.1374 -126.1007
v  -98.5944 54.1374 -56.9235
v  -56.9235 54.1374 -98.5944
v  -110.8481 20.3982 -60.2069
v  -126.1007 20.3982 -3.2834
v  -126.1007 54.1374 -3.2834
v  -110.8481 54.1374 -60.2069
v  -98.5945 54.1374 56.9235
v  -113.8471 54.1374 -0.0000
v  -107.5648 20.3982 65.8938
v  -65.8939 20.3982 107.5647
v  -65.8939 54.1374 107.5647
v  -107.5648 54.1374 65.8938
v  -0.0001 54.1374 113.8471
v  -56.9236 54.1374 98.5944
v  3.2833 20.3982 126.1007
v  60.2068 20.3982 110.8481
v  60.2068 54.1374 110.8481
v  3.2833 54.1374 126.1007
v  98.5944 54.1374 56.9236
v  56.9235 54.1374 98.5945
v  110.8481 20.3982 60.2070
v  126.1007 20.3982 3.2834
v  126.1007 54.1374 3.2834
v  110.8481 54.1374 60.2070
v  72.6040 74.5356 -41.9179
v  83.8359 74.5356 -0.0000
v  41.9179 74.5356 -72.6040
v  -0.0000 74.5356 -83.8359
v  -41.9180 74.5356 -72.6040
v  -72.6040 74.5356 -41.9180
v  -83.8359 74.5356 -0.0000
v  -72.6040 74.5356 41.9179
v  -41.9180 74.5356 72.6040
v  -0.0000 74.5356 83.8359
v  41.9179 74.5356 72.6040
v  72.6040 74.5356 41.9180
v  62.1770 60.7767 -35.8979
v  35.8979 60.7767 -62.1770
v  -0.0000 60.7767 -71.7959
v  62.1770 60.7767 35.8980
v  -35.8979 60.7767 -62.1770
v  -62.1770 60.7767 -35.8979
v  -62.1770 60.7767 35.8979
v  -71.7959 60.7767 -0.0000
v  -35.8979 60.7767 62.1770
v  -0.0000 60.7767 71.7959
v  35.8979 60.7767 62.1771
v  71.7959 60.7767 -0.0000
v  62.1770 74.5356 -35.8979
v  71.7959 74.5356 -0.0000
v  35.8979 74.5356 -62.1770
v  -0.0000 74.5356 -71.7959
v  -35.8979 74.5356 -62.1770
v  -62.1770 74.5356 -35.8979
v  -71.7959 74.5356 -0.0000
v  -62.1770 74.5356 35.8979
v  -35.8979 74.5356 62.1770
v  -0.0000 74.5356 71.7959
v  35.8979 74.5356 62.1771
v  62.1770 74.5356 35.8980
# 96 vertices

vn 0.5621 -0.8270 0.0000
vn 0.4868 -0.8270 -0.2811
vn 0.2811 -0.8270 -0.4868
vn -0.0000 -0.8270 -0.5621
vn -0.2811 -0.8270 -0.4868
vn -0.4868 -0.8270 -0.2811
vn -0.5621 -0.8270 -0.0000
vn -0.4868 -0.8270 0.2811
vn -0.2811 -0.8270 0.4868
vn -0.0000 -0.8270 0.5621
vn 0.2811 -0.8270 0.4868
vn 0.4868 -0.8270 0.2811
vn 0.9659 -0.0000 -0.2588
vn 0.7071 -0.0000 -0.7071
vn 0.2588 -0.0000 -0.9659
vn -0.2588 -0.0000 -0.9659
vn -0.7071 -0.0000 -0.7071
vn -0.9659 -0.0000 -0.2588
vn -0.9659 -0.0000 0.2588
vn -0.7071 -0.0000 0.7071
vn -0.2588 -0.0000 0.9659
vn 0.2588 -0.0000 0.9659
vn 0.7071 -0.0000 0.7071
vn 0.9659 -0.0000 0.2588
vn 0.5621 0.8270 0.0000
vn 0.4868 0.8270 -0.2811
vn 0.2811 0.8270 -0.4868
vn -0.0000 0.8270 -0.5621
vn -0.2811 0.8270 -0.4868
vn -0.4868 0.8270 -0.2811
vn -0.5621 0.8270 -0.0000
vn -0.4868 0.8270 0.2811
vn -0.2811 0.8270 0.4868
vn -0.0000 0.8270 0.5621
vn 0.2811 0.8270 0.4868
vn 0.4868 0.8270 0.2811
vn 0.0000 -1.0000 -0.0000
vn 0.0000 1.0000 -0.0000
vn -1.0000 0.0000 -0.0000
vn -0.8660 0.0000 0.5000
vn -0.5000 0.0000 0.8660
vn 0.0000 0.0000 1.0000
vn 0.5000 0.0000 0.8660
vn 0.8660 0.0000 0.5000
vn 1.0000 0.0000 0.0000
vn 0.8660 0.0000 -0.5000
vn 0.5000 0.0000 -0.8660
vn 0.0000 0.0000 -1.0000
vn -0.5000 0.0000 -0.8660
vn -0.8660 0.0000 -0.5000
vn -0.0000 -1.0000 0.0000
vn 0.7071 0.0000 0.7071
vn 0.0000 -1.0000 0.0000
vn -0.0000 1.0000 -0.0000
vn -0.0000 1.0000 0.0000
vn -0.0000 -1.0000 -0.0000
vn 0.0000 1.0000 0.0000
vn -0.2588 0.0000 0.9659
# 58 vertex normals

vt 0.2957 0.5912 0.0000
vt 0.2103 0.5906 0.0000
vt 0.1954 0.5335 0.0000
vt 0.3114 0.5343 0.0000
vt 0.1360 0.6328 0.0000
vt 0.0945 0.5907 0.0000
vt 0.0928 0.7065 0.0000
vt 0.0358 0.6908 0.0000
vt 0.0922 0.7919 0.0000
vt 0.0350 0.8068 0.0000
vt 0.1343 0.8662 0.0000
vt 0.0923 0.9077 0.0000
vt 0.2080 0.9095 0.0000
vt 0.1923 0.9664 0.0000
vt 0.2934 0.9101 0.0000
vt 0.3083 0.9673 0.0000
vt 0.3677 0.8679 0.0000
vt 0.4092 0.9100 0.0000
vt 0.4110 0.7942 0.0000
vt 0.4679 0.8099 0.0000
vt 0.4116 0.7088 0.0000
vt 0.4688 0.6939 0.0000
vt 0.3694 0.6345 0.0000
vt 0.4115 0.5930 0.0000
vt 0.1953 0.3319 0.0000
vt 0.1953 0.2159 0.0000
vt 0.2617 0.2159 0.0000
vt 0.2617 0.3319 0.0000
vt 0.9405 0.0764 0.0000
vt 0.8245 0.0764 0.0000
vt 0.8245 0.0100 0.0000
vt 0.9405 0.0100 0.0000
vt 0.6385 0.7600 0.0000
vt 0.5264 0.7600 0.0000
vt 0.5264 0.6936 0.0000
vt 0.6385 0.6936 0.0000
vt 0.7748 0.3827 0.0000
vt 0.6588 0.3827 0.0000
vt 0.6588 0.3162 0.0000
vt 0.7748 0.3162 0.0000
vt 0.8895 0.5782 0.0000
vt 0.8075 0.5782 0.0000
vt 0.8075 0.5117 0.0000
vt 0.8895 0.5117 0.0000
vt 0.6424 0.6691 0.0000
vt 0.5264 0.6691 0.0000
vt 0.5264 0.6027 0.0000
vt 0.6424 0.6027 0.0000
vt 0.6343 0.4736 0.0000
vt 0.5182 0.4736 0.0000
vt 0.5182 0.4072 0.0000
vt 0.6343 0.4072 0.0000
vt 0.6343 0.3827 0.0000
vt 0.5182 0.3827 0.0000
vt 0.5182 0.3162 0.0000
vt 0.6343 0.3162 0.0000
vt 0.7830 0.5782 0.0000
vt 0.6669 0.5782 0.0000
vt 0.6669 0.5117 0.0000
vt 0.7830 0.5117 0.0000
vt 0.9366 0.1673 0.0000
vt 0.8245 0.1673 0.0000
vt 0.8245 0.1009 0.0000
vt 0.9366 0.1009 0.0000
vt 0.6424 0.5782 0.0000
vt 0.5264 0.5782 0.0000
vt 0.5264 0.5117 0.0000
vt 0.6424 0.5117 0.0000
vt 0.2699 0.3319 0.0000
vt 0.2699 0.2159 0.0000
vt 0.3363 0.2159 0.0000
vt 0.3363 0.3319 0.0000
vt 0.0358 0.1891 0.0000
vt 0.0945 0.0890 0.0000
vt 0.1360 0.1311 0.0000
vt 0.0928 0.2048 0.0000
vt 0.1954 0.0317 0.0000
vt 0.2103 0.0889 0.0000
vt 0.3114 0.0325 0.0000
vt 0.2957 0.0895 0.0000
vt 0.4115 0.0913 0.0000
vt 0.3694 0.1327 0.0000
vt 0.4688 0.1922 0.0000
vt 0.4116 0.2070 0.0000
vt 0.4679 0.3082 0.0000
vt 0.4110 0.2925 0.0000
vt 0.4092 0.4082 0.0000
vt 0.3677 0.3662 0.0000
vt 0.3083 0.4655 0.0000
vt 0.2934 0.4083 0.0000
vt 0.1923 0.4647 0.0000
vt 0.2080 0.4077 0.0000
vt 0.0923 0.4060 0.0000
vt 0.1343 0.3645 0.0000
vt 0.0350 0.3051 0.0000
vt 0.0922 0.2902 0.0000
vt 0.7557 0.0476 0.0000
vt 0.7918 0.1112 0.0000
vt 0.7913 0.1843 0.0000
vt 0.6194 0.0100 0.0000
vt 0.7543 0.2474 0.0000
vt 0.6906 0.2836 0.0000
vt 0.5544 0.2460 0.0000
vt 0.6175 0.2830 0.0000
vt 0.5182 0.1824 0.0000
vt 0.5188 0.1092 0.0000
vt 0.5558 0.0461 0.0000
vt 0.6926 0.0105 0.0000
vt 0.1526 0.1480 0.0000
vt 0.1156 0.2111 0.0000
vt 0.2163 0.1118 0.0000
vt 0.2894 0.1124 0.0000
vt 0.3525 0.1494 0.0000
vt 0.3887 0.2130 0.0000
vt 0.3881 0.2862 0.0000
vt 0.3511 0.3493 0.0000
vt 0.2875 0.3854 0.0000
vt 0.2143 0.3849 0.0000
vt 0.1512 0.3478 0.0000
vt 0.1151 0.2842 0.0000
vt 0.5898 0.7845 0.0000
vt 0.6629 0.7845 0.0000
vt 0.6629 0.8116 0.0000
vt 0.5898 0.8116 0.0000
vt 0.7263 0.7845 0.0000
vt 0.7263 0.8116 0.0000
vt 0.8245 0.1918 0.0000
vt 0.8952 0.1918 0.0000
vt 0.8952 0.2189 0.0000
vt 0.8245 0.2189 0.0000
vt 0.9658 0.1918 0.0000
vt 0.9658 0.2189 0.0000
vt 0.6669 0.6027 0.0000
vt 0.7187 0.6027 0.0000
vt 0.7187 0.6297 0.0000
vt 0.6669 0.6297 0.0000
vt 0.7893 0.6027 0.0000
vt 0.7893 0.6297 0.0000
vt 0.8600 0.6027 0.0000
vt 0.8600 0.6297 0.0000
vt 0.9117 0.6027 0.0000
vt 0.9117 0.6297 0.0000
vt 0.6630 0.6936 0.0000
vt 0.7337 0.6936 0.0000
vt 0.7337 0.7207 0.0000
vt 0.6630 0.7207 0.0000
vt 0.8043 0.6936 0.0000
vt 0.8043 0.7207 0.0000
vt 0.8561 0.6936 0.0000
vt 0.8561 0.7207 0.0000
vt 0.5264 0.7845 0.0000
vt 0.5264 0.8116 0.0000
vt 0.0822 0.5690 0.0000
vt 0.1831 0.5117 0.0000
vt 0.5264 0.9514 0.0000
vt 0.5928 0.9514 0.0000
vt 0.5928 0.9764 0.0000
vt 0.5264 0.9764 0.0000
vt 0.0822 0.0673 0.0000
vt 0.1831 0.0100 0.0000
vt 0.5928 0.9187 0.0000
vt 0.5264 0.9187 0.0000
vt 0.5264 0.8937 0.0000
vt 0.5928 0.8937 0.0000
vt 0.0100 0.8066 0.0000
vt 0.0108 0.6906 0.0000
vt 0.9136 0.5117 0.0000
vt 0.9136 0.5782 0.0000
vt 0.3241 0.0110 0.0000
vt 0.4241 0.0697 0.0000
vt 0.8909 0.2684 0.0000
vt 0.8245 0.2684 0.0000
vt 0.8245 0.2434 0.0000
vt 0.8909 0.2434 0.0000
vt 0.1797 0.9880 0.0000
vt 0.0796 0.9292 0.0000
vt 0.5264 0.8361 0.0000
vt 0.5928 0.8361 0.0000
vt 0.5928 0.8611 0.0000
vt 0.5264 0.8611 0.0000
vt 0.4937 0.1923 0.0000
vt 0.4929 0.3084 0.0000
vt 0.9900 0.2684 0.0000
vt 0.9236 0.2684 0.0000
vt 0.9236 0.2434 0.0000
vt 0.9900 0.2434 0.0000
vt 0.4215 0.9317 0.0000
vt 0.3207 0.9890 0.0000
vt 0.1953 0.1827 0.0000
vt 0.2617 0.1827 0.0000
vt 0.2617 0.2077 0.0000
vt 0.1953 0.2077 0.0000
vt 0.4215 0.4299 0.0000
vt 0.3207 0.4872 0.0000
vt 0.6919 0.8611 0.0000
vt 0.6255 0.8611 0.0000
vt 0.6255 0.8361 0.0000
vt 0.6919 0.8361 0.0000
vt 0.4937 0.6941 0.0000
vt 0.4929 0.8101 0.0000
vt 0.1630 0.3319 0.0000
vt 0.1630 0.2655 0.0000
vt 0.1872 0.2655 0.0000
vt 0.1872 0.3319 0.0000
vt 0.1797 0.4862 0.0000
vt 0.0796 0.4275 0.0000
vt 0.7910 0.8602 0.0000
vt 0.7246 0.8602 0.0000
vt 0.7246 0.8361 0.0000
vt 0.7910 0.8361 0.0000
vt 0.3241 0.5127 0.0000
vt 0.4241 0.5715 0.0000
vt 0.6588 0.4072 0.0000
vt 0.7252 0.4072 0.0000
vt 0.7252 0.4321 0.0000
vt 0.6588 0.4321 0.0000
vt 0.0100 0.3049 0.0000
vt 0.0108 0.1889 0.0000
vt 0.8909 0.3261 0.0000
vt 0.8245 0.3261 0.0000
vt 0.8245 0.3011 0.0000
vt 0.8909 0.3011 0.0000
# 222 texture coords

g ai_attack_unit_01
usemtl 19___Default
s 4096
f 1/1/1 2/2/2 3/3/2 4/4/1 
f 2/2/2 5/5/3 6/6/3 3/3/2 
f 5/5/3 7/7/4 8/8/4 6/6/3 
f 7/7/4 9/9/5 10/10/5 8/8/4 
f 9/9/5 11/11/6 12/12/6 10/10/5 
f 11/11/6 13/13/7 14/14/7 12/12/6 
f 13/13/7 15/15/8 16/16/8 14/14/7 
f 15/15/8 17/17/9 18/18/9 16/16/8 
f 17/17/9 19/19/10 20/20/10 18/18/9 
f 19/19/10 21/21/11 22/22/11 20/20/10 
f 21/21/11 23/23/12 24/24/12 22/22/11 
f 23/23/12 1/1/1 4/4/1 24/24/12 
s 8
f 4/25/13 3/26/13 25/27/13 26/28/13 
f 27/29/14 28/30/14 29/31/14 30/32/14 
f 6/33/15 8/34/15 31/35/15 32/36/15 
f 33/37/16 34/38/16 35/39/16 36/40/16 
f 10/41/17 12/42/17 37/43/17 38/44/17 
f 39/45/18 40/46/18 41/47/18 42/48/18 
f 14/49/19 16/50/19 43/51/19 44/52/19 
f 45/53/20 46/54/20 47/55/20 48/56/20 
f 18/57/21 20/58/21 49/59/21 50/60/21 
f 51/61/22 52/62/22 53/63/22 54/64/22 
f 22/65/23 24/66/23 55/67/23 56/68/23 
f 57/69/24 58/70/24 59/71/24 60/72/24 
s 16384
f 26/73/25 25/74/26 61/75/26 62/76/25 
f 25/74/26 32/77/27 63/78/27 61/75/26 
f 32/77/27 31/79/28 64/80/28 63/78/27 
f 31/79/28 38/81/29 65/82/29 64/80/28 
f 38/81/29 37/83/30 66/84/30 65/82/29 
f 37/83/30 44/85/31 67/86/31 66/84/30 
f 44/85/31 43/87/32 68/88/32 67/86/31 
f 43/87/32 50/89/33 69/90/33 68/88/32 
f 50/89/33 49/91/34 70/92/34 69/90/33 
f 49/91/34 56/93/35 71/94/35 70/92/34 
f 56/93/35 55/95/36 72/96/36 71/94/35 
f 55/95/36 26/73/25 62/76/25 72/96/36 
s 1
f 21/21/37 19/19/37 17/17/37 1/1/37 
f 17/17/37 15/15/37 13/13/37 9/9/37 
f 13/13/37 11/11/37 9/9/37 
f 9/9/37 7/7/37 5/5/37 1/1/37 
f 5/5/37 2/2/37 1/1/37 
f 17/17/37 9/9/37 1/1/37 
f 23/23/37 21/21/37 1/1/37 
f 73/97/38 74/98/38 75/99/38 76/100/38 
f 75/99/38 77/101/38 78/102/38 79/103/38 
f 78/102/38 80/104/38 79/103/38 
f 79/103/38 81/105/38 82/106/38 76/100/38 
f 82/106/38 83/107/38 76/100/38 
f 75/99/38 79/103/38 76/100/38 
f 84/108/38 73/97/38 76/100/38 
s off
f 62/76/38 61/75/38 85/109/38 86/110/38 
f 61/75/38 63/78/38 87/111/38 85/109/38 
f 63/78/38 64/80/38 88/112/38 87/111/38 
f 64/80/38 65/82/38 89/113/38 88/112/38 
f 65/82/38 66/84/38 90/114/38 89/113/38 
f 66/84/38 67/86/38 91/115/38 90/114/38 
f 67/86/38 68/88/38 92/116/38 91/115/38 
f 68/88/38 69/90/38 93/117/38 92/116/38 
f 69/90/38 70/92/38 94/118/38 93/117/38 
f 70/92/38 71/94/38 95/119/38 94/118/38 
f 71/94/38 72/96/38 96/120/38 95/119/38 
f 72/96/38 62/76/38 86/110/38 96/120/38 
s 16384
f 86/121/39 85/122/40 73/123/40 84/124/39 
f 85/122/40 87/125/41 74/126/41 73/123/40 
f 87/127/41 88/128/42 75/129/42 74/130/41 
f 88/128/42 89/131/43 77/132/43 75/129/42 
f 89/133/43 90/134/44 78/135/44 77/136/43 
f 90/134/44 91/137/45 80/138/45 78/135/44 
f 91/137/45 92/139/46 79/140/46 80/138/45 
f 92/139/46 93/141/47 81/142/47 79/140/46 
f 93/143/47 94/144/48 82/145/48 81/146/47 
f 94/144/48 95/147/49 83/148/49 82/145/48 
f 95/147/49 96/149/50 76/150/50 83/148/49 
f 96/151/50 86/121/39 84/124/39 76/152/50 
s off
f 3/3/51 6/6/51 28/153/51 27/154/51 
f 6/155/17 32/156/17 29/157/17 28/158/17 
f 32/77/38 25/74/38 30/159/38 29/160/38 
f 25/161/52 3/162/52 27/163/52 30/164/52 
f 8/8/53 10/10/53 34/165/53 33/166/53 
f 10/41/19 38/44/19 35/167/19 34/168/19 
f 38/81/54 31/79/54 36/169/54 35/170/54 
f 31/171/13 8/172/13 33/173/13 36/174/13 
f 12/12/53 14/14/53 40/175/53 39/176/53 
f 14/177/21 44/178/21 41/179/21 40/180/21 
f 44/85/54 37/83/54 42/181/54 41/182/54 
f 37/183/15 12/184/15 39/185/15 42/186/15 
f 16/16/37 18/18/37 46/187/37 45/188/37 
f 18/189/23 50/190/23 47/191/23 46/192/23 
f 50/89/55 43/87/55 48/193/55 47/194/55 
f 43/195/17 16/196/17 45/197/17 48/198/17 
f 20/20/56 22/22/56 52/199/56 51/200/56 
f 22/201/13 56/202/13 53/203/13 52/204/13 
f 56/93/57 49/91/57 54/205/57 53/206/57 
f 49/207/19 20/208/19 51/209/19 54/210/19 
f 24/24/56 4/4/56 58/211/56 57/212/56 
f 4/213/15 26/214/15 59/215/15 58/216/15 
f 26/73/57 55/95/57 60/217/57 59/218/57 
f 55/219/58 24/220/58 57/221/58 60/222/58 
# 90 polygons - 8 triangles

