# 3ds Max Wavefront OBJ Exporter v0.97b - (c)2007 guruware
# File Created: 09.03.2017 15:21:30

mtllib missile_turret_01.mtl

#
# object missile_turret_01
#

v  -202.0826 -29.1104 229.9069
v  -175.0088 71.9310 229.9069
v  -175.0088 71.9310 162.6777
v  -202.0826 -29.1104 162.6777
v  -101.0414 145.8984 229.9069
v  -101.0414 145.8984 162.6777
v  0.0000 172.9723 229.9069
v  0.0000 172.9723 162.6777
v  101.0414 145.8984 229.9069
v  101.0414 145.8983 162.6778
v  175.0088 71.9310 229.9069
v  175.0088 71.9310 162.6778
v  202.0826 -29.1103 229.9070
v  202.0826 -29.1103 162.6778
v  175.0088 -130.1516 229.9070
v  175.0088 -130.1516 162.6778
v  101.0414 -204.1190 229.9070
v  101.0414 -204.1190 162.6778
v  0.0001 -231.1930 229.9070
v  0.0001 -231.1931 162.6778
v  -101.0413 -204.1191 229.9069
v  -101.0413 -204.1192 162.6778
v  -175.0087 -130.1518 229.9069
v  -175.0087 -130.1518 162.6777
v  -136.6642 49.7927 108.7890
v  -157.8062 -29.1104 108.7890
v  -78.9031 107.5538 108.7890
v  0.0000 128.6958 108.7890
v  78.9031 107.5538 108.7891
v  136.6642 49.7927 108.7891
v  157.8062 -29.1104 108.7891
v  136.6642 -108.0134 108.7891
v  78.9032 -165.7745 108.7891
v  0.0001 -186.9166 108.7891
v  -78.9031 -165.7746 108.7890
v  -136.6641 -108.0136 108.7890
v  0.0000 -29.1104 88.6998
v  154.9841 -74.5334 7.6947
v  154.9841 31.8216 96.9371
v  -155.1829 31.8216 96.9371
v  -155.1829 -74.5334 7.6947
v  137.4653 114.0663 -189.8150
v  -137.6638 114.0663 -189.8151
v  -137.6639 193.5807 -123.0946
v  137.4652 193.5807 -123.0945
v  -155.1827 124.8380 -229.9070
v  154.9843 124.8380 -229.9069
v  -155.1829 231.1931 -140.6645
v  154.9841 231.1931 -140.6645
v  -137.6638 138.2583 -218.6460
v  137.4653 138.2583 -218.6460
v  -137.6639 217.7728 -151.9255
v  137.4652 217.7728 -151.9254
# 53 vertices

vn -1.0000 -0.0000 -0.0000
vn -0.8660 0.5000 -0.0000
vn -0.8203 0.4736 -0.3207
vn -0.9472 -0.0000 -0.3207
vn -0.5000 0.8660 -0.0000
vn -0.4736 0.8203 -0.3207
vn 0.0000 1.0000 -0.0000
vn 0.0000 0.9472 -0.3207
vn 0.5000 0.8660 -0.0000
vn 0.4736 0.8203 -0.3207
vn 0.8660 0.5000 0.0000
vn 0.8203 0.4736 -0.3207
vn 1.0000 0.0000 0.0000
vn 0.9472 -0.0000 -0.3207
vn 0.8660 -0.5000 0.0000
vn 0.8203 -0.4736 -0.3207
vn 0.5000 -0.8660 0.0000
vn 0.4736 -0.8203 -0.3207
vn 0.0000 -1.0000 0.0000
vn 0.0000 -0.9472 -0.3207
vn -0.5000 -0.8660 0.0000
vn -0.4736 -0.8203 -0.3207
vn -0.8660 -0.5000 -0.0000
vn -0.8203 -0.4736 -0.3207
vn -0.4572 0.2640 -0.8493
vn -0.5279 -0.0000 -0.8493
vn -0.2640 0.4572 -0.8493
vn 0.0000 0.5279 -0.8493
vn 0.2640 0.4572 -0.8493
vn 0.4572 0.2640 -0.8493
vn 0.5279 -0.0000 -0.8493
vn 0.4572 -0.2640 -0.8493
vn 0.2640 -0.4572 -0.8493
vn 0.0000 -0.5279 -0.8493
vn -0.2640 -0.4572 -0.8493
vn -0.4572 -0.2640 -0.8493
vn 0.0000 -0.0000 -1.0000
vn -0.0000 0.0000 1.0000
vn -0.0000 -0.6428 0.7660
vn 0.0000 0.6428 -0.7660
vn 0.0000 -0.7660 -0.6428
vn -1.0000 0.0000 -0.0000
vn -0.0000 0.7660 0.6428
vn -0.0000 0.6428 -0.7660
# 44 vertex normals

vt 0.8117 0.3630 0.0000
vt 0.7191 0.3630 0.0000
vt 0.7191 0.3014 0.0000
vt 0.8117 0.3014 0.0000
vt 0.7136 0.7143 0.0000
vt 0.6458 0.7143 0.0000
vt 0.6458 0.6526 0.0000
vt 0.7136 0.6526 0.0000
vt 0.5532 0.7143 0.0000
vt 0.5532 0.6526 0.0000
vt 0.4605 0.7143 0.0000
vt 0.4605 0.6526 0.0000
vt 0.3927 0.7143 0.0000
vt 0.3927 0.6526 0.0000
vt 0.8983 0.5463 0.0000
vt 0.8056 0.5463 0.0000
vt 0.8056 0.4846 0.0000
vt 0.8983 0.4846 0.0000
vt 0.7130 0.5463 0.0000
vt 0.7130 0.4846 0.0000
vt 0.7136 0.8494 0.0000
vt 0.6458 0.8494 0.0000
vt 0.6458 0.7878 0.0000
vt 0.7136 0.7878 0.0000
vt 0.5532 0.8494 0.0000
vt 0.5532 0.7878 0.0000
vt 0.4605 0.8494 0.0000
vt 0.4605 0.7878 0.0000
vt 0.3927 0.8494 0.0000
vt 0.3927 0.7878 0.0000
vt 0.9044 0.3630 0.0000
vt 0.9044 0.3014 0.0000
vt 0.7394 0.2520 0.0000
vt 0.8117 0.2520 0.0000
vt 0.7971 0.1947 0.0000
vt 0.7012 0.1947 0.0000
vt 0.7117 0.1316 0.0000
vt 0.7866 0.1316 0.0000
vt 0.5532 0.6032 0.0000
vt 0.6255 0.6032 0.0000
vt 0.4808 0.6032 0.0000
vt 0.9171 0.1947 0.0000
vt 0.8212 0.1947 0.0000
vt 0.8317 0.1316 0.0000
vt 0.9066 0.1316 0.0000
vt 0.8056 0.4352 0.0000
vt 0.8780 0.4352 0.0000
vt 0.7333 0.4352 0.0000
vt 0.7971 0.9366 0.0000
vt 0.7012 0.9366 0.0000
vt 0.7117 0.8735 0.0000
vt 0.7866 0.8735 0.0000
vt 0.5532 0.7384 0.0000
vt 0.6255 0.7384 0.0000
vt 0.4808 0.7384 0.0000
vt 0.9171 0.9366 0.0000
vt 0.8212 0.9366 0.0000
vt 0.8317 0.8735 0.0000
vt 0.9066 0.8735 0.0000
vt 0.8841 0.2520 0.0000
vt 0.1885 0.3933 0.0000
vt 0.2531 0.4312 0.0000
vt 0.1500 0.5327 0.0000
vt 0.2900 0.4963 0.0000
vt 0.2895 0.5712 0.0000
vt 0.2516 0.6358 0.0000
vt 0.1865 0.6728 0.0000
vt 0.1116 0.6722 0.0000
vt 0.0470 0.6343 0.0000
vt 0.0100 0.5692 0.0000
vt 0.0105 0.4943 0.0000
vt 0.0484 0.4297 0.0000
vt 0.1136 0.3927 0.0000
vt 0.1426 0.0100 0.0000
vt 0.2385 0.0107 0.0000
vt 0.3212 0.0592 0.0000
vt 0.0107 0.1401 0.0000
vt 0.3686 0.1426 0.0000
vt 0.3679 0.2385 0.0000
vt 0.2360 0.3686 0.0000
vt 0.3194 0.3212 0.0000
vt 0.1401 0.3679 0.0000
vt 0.0574 0.3194 0.0000
vt 0.0100 0.2360 0.0000
vt 0.0592 0.0574 0.0000
vt 0.6771 0.8735 0.0000
vt 0.6771 0.9711 0.0000
vt 0.3927 0.9711 0.0000
vt 0.3927 0.8735 0.0000
vt 0.9900 0.6761 0.0000
vt 0.7377 0.6761 0.0000
vt 0.7377 0.6032 0.0000
vt 0.9900 0.6032 0.0000
vt 0.2944 0.9228 0.0000
vt 0.0100 0.9228 0.0000
vt 0.0100 0.7049 0.0000
vt 0.2944 0.7049 0.0000
vt 0.6808 0.4438 0.0000
vt 0.6770 0.5711 0.0000
vt 0.3927 0.5625 0.0000
vt 0.3966 0.4352 0.0000
vt 0.6771 0.2278 0.0000
vt 0.3927 0.2278 0.0000
vt 0.3927 0.0100 0.0000
vt 0.6771 0.0100 0.0000
vt 0.3927 0.3788 0.0000
vt 0.4036 0.2520 0.0000
vt 0.6869 0.2762 0.0000
vt 0.6761 0.4031 0.0000
vt 0.9856 0.1075 0.0000
vt 0.7012 0.1075 0.0000
vt 0.7173 0.0952 0.0000
vt 0.9695 0.0952 0.0000
vt 0.7012 0.0100 0.0000
vt 0.7173 0.0223 0.0000
vt 0.9856 0.0100 0.0000
vt 0.9695 0.0223 0.0000
vt 0.0100 0.9469 0.0000
vt 0.2623 0.9469 0.0000
vt 0.2623 0.9733 0.0000
vt 0.0100 0.9733 0.0000
vt 0.8294 0.0428 0.0000
vt 0.9242 0.0510 0.0000
vt 0.9212 0.0853 0.0000
vt 0.8264 0.0772 0.0000
vt 0.7377 0.7384 0.0000
vt 0.9900 0.7384 0.0000
vt 0.9900 0.7648 0.0000
vt 0.7377 0.7648 0.0000
vt 0.8329 0.8263 0.0000
vt 0.7377 0.8234 0.0000
vt 0.7388 0.7889 0.0000
vt 0.8339 0.7918 0.0000
# 133 texture coords

g missile_turret_01
usemtl 12___Default
s 8
f 1/1/1 2/2/2 3/3/3 4/4/4 
f 2/5/2 5/6/5 6/7/6 3/8/3 
f 5/6/5 7/9/7 8/10/8 6/7/6 
f 7/9/7 9/11/9 10/12/10 8/10/8 
f 9/11/9 11/13/11 12/14/12 10/12/10 
f 11/15/11 13/16/13 14/17/14 12/18/12 
f 13/16/13 15/19/15 16/20/16 14/17/14 
f 15/21/15 17/22/17 18/23/18 16/24/16 
f 17/22/17 19/25/19 20/26/20 18/23/18 
f 19/25/19 21/27/21 22/28/22 20/26/20 
f 21/27/21 23/29/23 24/30/24 22/28/22 
f 23/31/23 1/1/1 4/4/4 24/32/24 
f 4/4/4 3/3/3 25/33/25 26/34/26 
f 3/35/3 6/36/6 27/37/27 25/38/25 
f 6/7/6 8/10/8 28/39/28 27/40/27 
f 8/10/8 10/12/10 29/41/29 28/39/28 
f 10/42/10 12/43/12 30/44/30 29/45/29 
f 12/18/12 14/17/14 31/46/31 30/47/30 
f 14/17/14 16/20/16 32/48/32 31/46/31 
f 16/49/16 18/50/18 33/51/33 32/52/32 
f 18/23/18 20/26/20 34/53/34 33/54/33 
f 20/26/20 22/28/22 35/55/35 34/53/34 
f 22/56/22 24/57/24 36/58/36 35/59/35 
f 24/32/24 4/4/4 26/34/26 36/60/36 
f 26/61/26 25/62/25 37/63/37 
f 25/62/25 27/64/27 37/63/37 
f 27/64/27 28/65/28 37/63/37 
f 28/65/28 29/66/29 37/63/37 
f 29/66/29 30/67/30 37/63/37 
f 30/67/30 31/68/31 37/63/37 
f 31/68/31 32/69/32 37/63/37 
f 32/69/32 33/70/33 37/63/37 
f 33/70/33 34/71/34 37/63/37 
f 34/71/34 35/72/35 37/63/37 
f 35/72/35 36/73/36 37/63/37 
f 36/73/36 26/61/26 37/63/37 
s 1
f 21/74/38 19/75/38 17/76/38 1/77/38 
f 17/76/38 15/78/38 13/79/38 9/80/38 
f 13/79/38 11/81/38 9/80/38 
f 9/80/38 7/82/38 5/83/38 1/77/38 
f 5/83/38 2/84/38 1/77/38 
f 17/76/38 9/80/38 1/77/38 
f 23/85/38 21/74/38 1/77/38 
s 2
f 38/86/39 39/87/39 40/88/39 41/89/39 
s 4
f 42/90/40 43/91/40 44/92/40 45/93/40 
s 8
f 38/94/41 41/95/41 46/96/41 47/97/41 
s 16
f 41/98/42 40/99/42 48/100/42 46/101/42 
s 32
f 40/102/43 39/103/43 49/104/43 48/105/43 
s 64
f 39/106/13 38/107/13 47/108/13 49/109/13 
s off
f 47/110/40 46/111/40 50/112/40 51/113/40 
f 46/111/44 48/114/44 52/115/44 50/112/44 
f 48/114/40 49/116/40 53/117/40 52/115/40 
f 49/116/40 47/110/40 51/113/40 53/117/40 
f 51/118/43 50/119/43 43/120/43 42/121/43 
f 50/122/13 52/123/13 44/124/13 43/125/13 
f 52/126/41 53/127/41 45/128/41 44/129/41 
f 53/130/42 51/131/42 42/132/42 45/133/42 
# 41 polygons - 16 triangles

