# 3ds Max Wavefront OBJ Exporter v0.97b - (c)2007 guruware
# File Created: 09.03.2017 15:19:17

mtllib weaponpack_01.mtl

#
# object weaponpack_01
#

v  43.3799 0.0000 -94.3501
v  37.5681 21.6900 -94.3501
v  43.7472 25.2574 -80.8450
v  50.5149 0.0000 -80.8451
v  21.6900 37.5681 -94.3501
v  25.2574 43.7472 -80.8450
v  -0.0000 43.3800 -94.3501
v  -0.0000 50.5149 -80.8450
v  -21.6900 37.5681 -94.3501
v  -25.2574 43.7472 -80.8450
v  -37.5681 21.6900 -94.3501
v  -43.7472 25.2574 -80.8450
v  -43.3799 0.0000 -94.3501
v  -50.5149 0.0000 -80.8451
v  -37.5681 -21.6900 -94.3501
v  -43.7472 -25.2574 -80.8451
v  -21.6900 -37.5681 -94.3501
v  -25.2574 -43.7471 -80.8451
v  -0.0000 -43.3799 -94.3501
v  -0.0000 -50.5149 -80.8451
v  21.6900 -37.5681 -94.3501
v  25.2574 -43.7472 -80.8451
v  37.5681 -21.6900 -94.3501
v  43.7471 -25.2575 -80.8451
v  43.7472 25.2574 80.8450
v  50.5149 -0.0000 80.8450
v  25.2574 43.7472 80.8450
v  -0.0000 50.5149 80.8450
v  -25.2574 43.7472 80.8450
v  -43.7472 25.2574 80.8450
v  -50.5149 -0.0000 80.8450
v  -43.7472 -25.2574 80.8450
v  -25.2574 -43.7472 80.8450
v  -0.0000 -50.5149 80.8450
v  25.2574 -43.7472 80.8450
v  43.7471 -25.2575 80.8450
v  37.5681 21.6900 94.3501
v  43.3799 -0.0000 94.3501
v  21.6900 37.5681 94.3501
v  -0.0000 43.3799 94.3501
v  -21.6900 37.5681 94.3501
v  -37.5681 21.6900 94.3501
v  -43.3799 -0.0000 94.3501
v  -37.5681 -21.6900 94.3501
v  -21.6900 -37.5681 94.3501
v  -0.0000 -43.3800 94.3501
v  21.6900 -37.5682 94.3501
v  37.5681 -21.6900 94.3501
# 48 vertices

vn 0.8842 0.0000 -0.4671
vn 0.7657 0.4421 -0.4671
vn 0.8842 -0.0000 -0.4671
vn 0.4421 0.7657 -0.4671
vn 0.0000 0.8842 -0.4671
vn -0.4421 0.7657 -0.4671
vn -0.7657 0.4421 -0.4671
vn -0.8842 0.0000 -0.4671
vn -0.7657 -0.4421 -0.4671
vn -0.4421 -0.7657 -0.4671
vn -0.0000 -0.8842 -0.4671
vn 0.4421 -0.7657 -0.4671
vn 0.7657 -0.4421 -0.4671
vn 1.0000 -0.0000 -0.0000
vn 0.8660 0.5000 0.0000
vn 0.5000 0.8660 0.0000
vn -0.0000 1.0000 0.0000
vn -0.5000 0.8660 0.0000
vn -0.8660 0.5000 0.0000
vn -1.0000 0.0000 -0.0000
vn -0.8660 -0.5000 -0.0000
vn -0.5000 -0.8660 -0.0000
vn -0.0000 -1.0000 -0.0000
vn 0.5000 -0.8660 -0.0000
vn 0.8660 -0.5000 -0.0000
vn 0.8842 -0.0000 0.4671
vn 0.7657 0.4421 0.4671
vn 0.4421 0.7657 0.4671
vn -0.0000 0.8842 0.4671
vn -0.4421 0.7657 0.4671
vn -0.7657 0.4421 0.4671
vn -0.8842 0.0000 0.4671
vn -0.8842 -0.0000 0.4671
vn -0.7657 -0.4421 0.4671
vn -0.4421 -0.7657 0.4671
vn -0.0000 -0.8842 0.4671
vn 0.4421 -0.7657 0.4671
vn 0.7657 -0.4421 0.4671
vn 0.0000 0.0000 -1.0000
vn 0.0000 -0.0000 1.0000
vn -0.0000 0.0000 1.0000
vn 0.0000 0.0000 1.0000
# 42 vertex normals

vt 0.0100 0.4174 0.0000
vt 0.0100 0.3550 0.0000
vt 0.0488 0.3448 0.0000
vt 0.0488 0.4174 0.0000
vt 0.9087 0.7923 0.0000
vt 0.8442 0.7923 0.0000
vt 0.8389 0.7487 0.0000
vt 0.9140 0.7487 0.0000
vt 0.0100 0.8836 0.0000
vt 0.0100 0.8213 0.0000
vt 0.0488 0.8213 0.0000
vt 0.0488 0.8939 0.0000
vt 0.0100 0.7590 0.0000
vt 0.0488 0.7487 0.0000
vt 0.6523 0.4015 0.0000
vt 0.5878 0.4015 0.0000
vt 0.5825 0.3579 0.0000
vt 0.6576 0.3579 0.0000
vt 0.0100 0.1980 0.0000
vt 0.0100 0.1357 0.0000
vt 0.0488 0.1357 0.0000
vt 0.0488 0.2083 0.0000
vt 0.0100 0.0734 0.0000
vt 0.0488 0.0631 0.0000
vt 0.6523 0.6300 0.0000
vt 0.5878 0.6300 0.0000
vt 0.5825 0.5865 0.0000
vt 0.6576 0.5865 0.0000
vt 0.0100 0.7082 0.0000
vt 0.0100 0.6459 0.0000
vt 0.0488 0.6459 0.0000
vt 0.0488 0.7185 0.0000
vt 0.0100 0.5836 0.0000
vt 0.0488 0.5733 0.0000
vt 0.7501 0.3352 0.0000
vt 0.6856 0.3352 0.0000
vt 0.6803 0.2917 0.0000
vt 0.7554 0.2917 0.0000
vt 0.0100 0.4797 0.0000
vt 0.0488 0.4899 0.0000
vt 0.5134 0.3448 0.0000
vt 0.5134 0.4174 0.0000
vt 0.0488 0.2917 0.0000
vt 0.5134 0.2917 0.0000
vt 0.5134 0.8213 0.0000
vt 0.5134 0.8939 0.0000
vt 0.5134 0.7487 0.0000
vt 0.0488 0.2614 0.0000
vt 0.5134 0.2083 0.0000
vt 0.5134 0.2614 0.0000
vt 0.5134 0.1357 0.0000
vt 0.5134 0.0631 0.0000
vt 0.0488 0.0100 0.0000
vt 0.5134 0.0100 0.0000
vt 0.5134 0.6459 0.0000
vt 0.5134 0.7185 0.0000
vt 0.5134 0.5733 0.0000
vt 0.0488 0.5202 0.0000
vt 0.5134 0.5202 0.0000
vt 0.5134 0.4899 0.0000
vt 0.5522 0.3550 0.0000
vt 0.5522 0.4174 0.0000
vt 0.0851 0.9677 0.0000
vt 0.0100 0.9677 0.0000
vt 0.0153 0.9242 0.0000
vt 0.0798 0.9242 0.0000
vt 0.5522 0.8213 0.0000
vt 0.5522 0.8836 0.0000
vt 0.5522 0.7590 0.0000
vt 0.9064 0.0536 0.0000
vt 0.8313 0.0536 0.0000
vt 0.8366 0.0100 0.0000
vt 0.9011 0.0100 0.0000
vt 0.5522 0.1357 0.0000
vt 0.5522 0.1980 0.0000
vt 0.5522 0.0734 0.0000
vt 0.6576 0.5638 0.0000
vt 0.5825 0.5638 0.0000
vt 0.5878 0.5202 0.0000
vt 0.6523 0.5202 0.0000
vt 0.5522 0.6459 0.0000
vt 0.5522 0.7082 0.0000
vt 0.5522 0.5836 0.0000
vt 0.6576 0.3352 0.0000
vt 0.5825 0.3352 0.0000
vt 0.5878 0.2917 0.0000
vt 0.6523 0.2917 0.0000
vt 0.5522 0.4797 0.0000
vt 0.7345 0.2513 0.0000
vt 0.6700 0.2508 0.0000
vt 0.6143 0.2181 0.0000
vt 0.8233 0.1637 0.0000
vt 0.5825 0.1620 0.0000
vt 0.5829 0.0975 0.0000
vt 0.6717 0.0100 0.0000
vt 0.6156 0.0419 0.0000
vt 0.7362 0.0105 0.0000
vt 0.7919 0.0431 0.0000
vt 0.8237 0.0992 0.0000
vt 0.7906 0.2194 0.0000
vt 0.6143 0.9569 0.0000
vt 0.5825 0.9008 0.0000
vt 0.5829 0.8363 0.0000
vt 0.7345 0.9900 0.0000
vt 0.6156 0.7806 0.0000
vt 0.6717 0.7487 0.0000
vt 0.7919 0.7819 0.0000
vt 0.7362 0.7492 0.0000
vt 0.8237 0.8380 0.0000
vt 0.8233 0.9025 0.0000
vt 0.7906 0.9581 0.0000
vt 0.6700 0.9895 0.0000
# 112 texture coords

g weaponpack_01
usemtl 20___Default
s 8192
f 1/1/1 2/2/2 3/3/2 4/4/3 
f 2/5/2 5/6/4 6/7/4 3/8/2 
f 5/9/4 7/10/5 8/11/5 6/12/4 
f 7/10/5 9/13/6 10/14/6 8/11/5 
f 9/15/6 11/16/7 12/17/7 10/18/6 
f 11/19/7 13/20/8 14/21/8 12/22/7 
f 13/20/8 15/23/9 16/24/9 14/21/8 
f 15/25/9 17/26/10 18/27/10 16/28/9 
f 17/29/10 19/30/11 20/31/11 18/32/10 
f 19/30/11 21/33/12 22/34/12 20/31/11 
f 21/35/12 23/36/13 24/37/13 22/38/12 
f 23/39/13 1/1/1 4/4/3 24/40/13 
s 8
f 4/4/14 3/3/15 25/41/15 26/42/14 
f 3/3/15 6/43/16 27/44/16 25/41/15 
f 6/12/16 8/11/17 28/45/17 27/46/16 
f 8/11/17 10/14/18 29/47/18 28/45/17 
f 10/48/18 12/22/19 30/49/19 29/50/18 
f 12/22/19 14/21/20 31/51/20 30/49/19 
f 14/21/20 16/24/21 32/52/21 31/51/20 
f 16/24/21 18/53/22 33/54/22 32/52/21 
f 18/32/22 20/31/23 34/55/23 33/56/22 
f 20/31/23 22/34/24 35/57/24 34/55/23 
f 22/34/24 24/58/25 36/59/25 35/57/24 
f 24/40/25 4/4/14 26/42/14 36/60/25 
s 8192
f 26/42/26 25/41/27 37/61/27 38/62/26 
f 25/63/27 27/64/28 39/65/28 37/66/27 
f 27/46/28 28/45/29 40/67/29 39/68/28 
f 28/45/29 29/47/30 41/69/30 40/67/29 
f 29/70/30 30/71/31 42/72/31 41/73/30 
f 30/49/31 31/51/32 43/74/33 42/75/31 
f 31/51/32 32/52/34 44/76/34 43/74/33 
f 32/77/34 33/78/35 45/79/35 44/80/34 
f 33/56/35 34/55/36 46/81/36 45/82/35 
f 34/55/36 35/57/37 47/83/37 46/81/36 
f 35/84/37 36/85/38 48/86/38 47/87/37 
f 36/60/38 26/42/26 38/62/26 48/88/38 
s 1
f 21/89/39 19/90/39 17/91/39 1/92/39 
f 17/91/39 15/93/39 13/94/39 9/95/39 
f 13/94/39 11/96/39 9/95/39 
f 9/95/39 7/97/39 5/98/39 1/92/39 
f 5/98/39 2/99/39 1/92/39 
f 17/91/39 9/95/39 1/92/39 
f 23/100/39 21/89/39 1/92/39 
f 37/101/40 39/102/40 40/103/40 48/104/41 
f 40/103/40 41/105/40 42/106/40 44/107/42 
f 42/106/40 43/108/40 44/107/42 
f 44/107/42 45/109/42 46/110/42 48/104/41 
f 46/110/42 47/111/41 48/104/41 
f 40/103/40 44/107/42 48/104/41 
f 38/112/40 37/101/40 48/104/41 
# 42 polygons - 8 triangles

