# 3ds Max Wavefront OBJ Exporter v0.97b - (c)2007 guruware
# File Created: 09.03.2017 15:22:00

mtllib missile_01.mtl

#
# object missile_01
#

v  -0.0000 0.0000 -71.0113
v  4.4234 2.5539 -57.9837
v  5.1077 0.0000 -57.9837
v  2.5539 4.4234 -57.9837
v  -0.0000 5.1077 -57.9837
v  -2.5539 4.4234 -57.9837
v  -4.4234 2.5539 -57.9837
v  -5.1077 0.0000 -57.9837
v  -4.4234 -2.5539 -57.9837
v  -2.5539 -4.4234 -57.9837
v  -0.0000 -5.1077 -57.9837
v  2.5539 -4.4234 -57.9837
v  4.4234 -2.5539 -57.9837
v  7.0727 4.0834 -44.9560
v  8.1669 0.0000 -44.9560
v  4.0834 7.0727 -44.9560
v  -0.0000 8.1669 -44.9560
v  -4.0834 7.0727 -44.9560
v  -7.0727 4.0834 -44.9560
v  -8.1669 0.0000 -44.9560
v  -7.0727 -4.0834 -44.9559
v  -4.0834 -7.0727 -44.9560
v  -0.0000 -8.1669 -44.9560
v  4.0834 -7.0727 -44.9560
v  7.0727 -4.0834 -44.9559
v  7.6886 4.4390 -29.9656
v  8.8780 0.0000 -29.9656
v  4.4390 7.6886 -29.9656
v  -0.0000 8.8780 -29.9656
v  -4.4390 7.6886 -29.9656
v  -7.6886 4.4390 -29.9656
v  -8.8780 0.0000 -29.9656
v  -7.6886 -4.4390 -29.9656
v  -4.4390 -7.6886 -29.9656
v  -0.0000 -8.8780 -29.9656
v  4.4390 -7.6886 -29.9656
v  7.6886 -4.4390 -29.9656
v  7.6886 4.4390 13.7674
v  8.8780 -0.0000 13.7674
v  4.4390 7.6886 13.7674
v  -0.0000 8.8780 13.7674
v  -4.4390 7.6886 13.7674
v  -7.6886 4.4390 13.7674
v  -8.8780 -0.0000 13.7674
v  -7.6886 -4.4390 13.7674
v  -4.4390 -7.6886 13.7674
v  -0.0000 -8.8780 13.7674
v  4.4390 -7.6886 13.7674
v  7.6886 -4.4390 13.7674
v  7.6886 4.4390 42.3894
v  8.8780 -0.0000 42.3894
v  4.4390 7.6886 42.3894
v  -0.0000 8.8780 42.3894
v  -4.4390 7.6886 42.3894
v  -7.6886 4.4390 42.3894
v  -8.8780 -0.0000 42.3894
v  -7.6886 -4.4390 42.3894
v  -4.4390 -7.6886 42.3894
v  -0.0000 -8.8780 42.3894
v  4.4390 -7.6886 42.3894
v  7.6886 -4.4390 42.3894
v  7.6886 4.4390 71.0114
v  8.8780 -0.0000 71.0114
v  4.4390 7.6886 71.0114
v  -0.0000 8.8780 71.0114
v  -4.4390 7.6886 71.0114
v  -7.6886 4.4390 71.0114
v  -8.8780 -0.0000 71.0114
v  -7.6886 -4.4390 71.0114
v  -4.4390 -7.6886 71.0114
v  -0.0000 -8.8780 71.0114
v  4.4390 -7.6886 71.0114
v  7.6886 -4.4390 71.0114
# 73 vertices

vn -0.0000 0.0000 -1.0000
vn 0.6437 0.3716 -0.6690
vn 0.7433 0.0000 -0.6690
vn 0.3716 0.6437 -0.6690
vn 0.0000 0.7433 -0.6690
vn -0.3716 0.6437 -0.6690
vn -0.6437 0.3716 -0.6690
vn -0.7433 0.0000 -0.6690
vn -0.6437 -0.3716 -0.6690
vn -0.3716 -0.6437 -0.6690
vn -0.0000 -0.7433 -0.6690
vn 0.3716 -0.6437 -0.6690
vn 0.6437 -0.3716 -0.6690
vn 0.8080 0.4665 -0.3598
vn 0.9330 -0.0000 -0.3598
vn 0.4665 0.8080 -0.3598
vn -0.0000 0.9330 -0.3598
vn -0.4665 0.8080 -0.3598
vn -0.8080 0.4665 -0.3598
vn -0.9330 0.0000 -0.3598
vn -0.8080 -0.4665 -0.3598
vn -0.4665 -0.8080 -0.3598
vn -0.0000 -0.9330 -0.3598
vn 0.4665 -0.8080 -0.3598
vn 0.8080 -0.4665 -0.3598
vn 0.8639 0.4987 -0.0708
vn 0.9975 -0.0000 -0.0708
vn 0.4987 0.8639 -0.0708
vn -0.0000 0.9975 -0.0708
vn -0.4987 0.8639 -0.0708
vn -0.8639 0.4987 -0.0708
vn -0.9975 0.0000 -0.0708
vn -0.8639 -0.4987 -0.0708
vn -0.4987 -0.8639 -0.0708
vn -0.0000 -0.9975 -0.0708
vn 0.4987 -0.8639 -0.0708
vn 0.8639 -0.4987 -0.0708
vn 0.8660 0.5000 0.0000
vn 1.0000 -0.0000 0.0000
vn 0.5000 0.8660 0.0000
vn -0.0000 1.0000 0.0000
vn -0.5000 0.8660 0.0000
vn -0.8660 0.5000 0.0000
vn -1.0000 0.0000 -0.0000
vn -0.8660 -0.5000 -0.0000
vn -0.5000 -0.8660 -0.0000
vn -0.0000 -1.0000 -0.0000
vn 0.5000 -0.8660 -0.0000
vn 0.8660 -0.5000 -0.0000
vn 1.0000 -0.0000 -0.0000
vn -1.0000 0.0000 0.0000
vn 0.0000 -0.0000 1.0000
# 52 vertex normals

vt 0.6207 0.7755 0.0000
vt 0.6037 0.7099 0.0000
vt 0.6387 0.7101 0.0000
vt 0.5732 0.7272 0.0000
vt 0.5554 0.7575 0.0000
vt 0.5552 0.7925 0.0000
vt 0.5725 0.8230 0.0000
vt 0.6027 0.8408 0.0000
vt 0.6378 0.8410 0.0000
vt 0.6683 0.8237 0.0000
vt 0.6860 0.7935 0.0000
vt 0.6863 0.7584 0.0000
vt 0.6690 0.7279 0.0000
vt 0.7201 0.8825 0.0000
vt 0.7201 0.8487 0.0000
vt 0.7769 0.8284 0.0000
vt 0.7769 0.8825 0.0000
vt 0.3879 0.7603 0.0000
vt 0.3879 0.7252 0.0000
vt 0.4569 0.7147 0.0000
vt 0.4569 0.7708 0.0000
vt 0.1602 0.8362 0.0000
vt 0.1602 0.8024 0.0000
vt 0.2170 0.8024 0.0000
vt 0.2170 0.8565 0.0000
vt 0.1602 0.7685 0.0000
vt 0.2170 0.7482 0.0000
vt 0.3949 0.9364 0.0000
vt 0.3949 0.9014 0.0000
vt 0.4639 0.8909 0.0000
vt 0.4639 0.9469 0.0000
vt 0.7167 0.7740 0.0000
vt 0.7167 0.7402 0.0000
vt 0.7735 0.7402 0.0000
vt 0.7735 0.7943 0.0000
vt 0.7167 0.7063 0.0000
vt 0.7735 0.6860 0.0000
vt 0.5859 0.9520 0.0000
vt 0.5859 0.9169 0.0000
vt 0.6549 0.9064 0.0000
vt 0.6549 0.9625 0.0000
vt 0.4129 0.8210 0.0000
vt 0.4129 0.7872 0.0000
vt 0.4697 0.7872 0.0000
vt 0.4697 0.8413 0.0000
vt 0.4129 0.7533 0.0000
vt 0.4697 0.7330 0.0000
vt 0.3879 0.9483 0.0000
vt 0.3879 0.9132 0.0000
vt 0.4569 0.9027 0.0000
vt 0.4569 0.9588 0.0000
vt 0.7201 0.9164 0.0000
vt 0.7769 0.9367 0.0000
vt 0.8423 0.8237 0.0000
vt 0.8423 0.8825 0.0000
vt 0.5158 0.7123 0.0000
vt 0.5158 0.7732 0.0000
vt 0.2824 0.8024 0.0000
vt 0.2824 0.8612 0.0000
vt 0.2824 0.7435 0.0000
vt 0.5229 0.8884 0.0000
vt 0.5229 0.9494 0.0000
vt 0.8389 0.7402 0.0000
vt 0.8389 0.7990 0.0000
vt 0.8389 0.6813 0.0000
vt 0.7139 0.9040 0.0000
vt 0.7139 0.9649 0.0000
vt 0.5350 0.7872 0.0000
vt 0.5350 0.8460 0.0000
vt 0.5350 0.7283 0.0000
vt 0.5158 0.9003 0.0000
vt 0.5158 0.9613 0.0000
vt 0.8423 0.9414 0.0000
vt 0.1321 0.3431 0.0000
vt 0.1321 0.2842 0.0000
vt 0.3228 0.2842 0.0000
vt 0.3228 0.3431 0.0000
vt 0.1321 0.2411 0.0000
vt 0.3228 0.2411 0.0000
vt 0.4155 0.2706 0.0000
vt 0.4155 0.2117 0.0000
vt 0.6062 0.2117 0.0000
vt 0.6062 0.2706 0.0000
vt 0.4155 0.1529 0.0000
vt 0.6062 0.1529 0.0000
vt 0.1321 0.2139 0.0000
vt 0.1321 0.1708 0.0000
vt 0.3228 0.1708 0.0000
vt 0.3228 0.2139 0.0000
vt 0.1321 0.1120 0.0000
vt 0.3228 0.1120 0.0000
vt 0.1321 0.0531 0.0000
vt 0.3228 0.0531 0.0000
vt 0.1321 0.0100 0.0000
vt 0.3228 0.0100 0.0000
vt 0.1321 0.5900 0.0000
vt 0.1321 0.5311 0.0000
vt 0.3228 0.5311 0.0000
vt 0.3228 0.5900 0.0000
vt 0.1321 0.4722 0.0000
vt 0.3228 0.4722 0.0000
vt 0.1321 0.4292 0.0000
vt 0.3228 0.4292 0.0000
vt 0.1321 0.4020 0.0000
vt 0.3228 0.4020 0.0000
vt 0.4476 0.2842 0.0000
vt 0.4476 0.3431 0.0000
vt 0.4476 0.2411 0.0000
vt 0.7310 0.2117 0.0000
vt 0.7310 0.2706 0.0000
vt 0.7310 0.1529 0.0000
vt 0.4476 0.1708 0.0000
vt 0.4476 0.2139 0.0000
vt 0.4476 0.1120 0.0000
vt 0.4476 0.0531 0.0000
vt 0.4476 0.0100 0.0000
vt 0.4476 0.5311 0.0000
vt 0.4476 0.5900 0.0000
vt 0.4476 0.4722 0.0000
vt 0.4476 0.4292 0.0000
vt 0.4476 0.4020 0.0000
vt 0.5724 0.2842 0.0000
vt 0.5724 0.3431 0.0000
vt 0.5724 0.2411 0.0000
vt 0.8557 0.2117 0.0000
vt 0.8557 0.2706 0.0000
vt 0.8557 0.1529 0.0000
vt 0.5724 0.1708 0.0000
vt 0.5724 0.2139 0.0000
vt 0.5724 0.1120 0.0000
vt 0.5724 0.0531 0.0000
vt 0.5724 0.0100 0.0000
vt 0.5724 0.5311 0.0000
vt 0.5724 0.5900 0.0000
vt 0.5724 0.4722 0.0000
vt 0.5724 0.4292 0.0000
vt 0.5724 0.4020 0.0000
vt 0.4900 0.4956 0.0000
vt 0.4370 0.5257 0.0000
vt 0.3760 0.5252 0.0000
vt 0.5213 0.3821 0.0000
vt 0.3235 0.4944 0.0000
vt 0.2934 0.4414 0.0000
vt 0.3247 0.3279 0.0000
vt 0.2938 0.3804 0.0000
vt 0.3777 0.2978 0.0000
vt 0.4386 0.2982 0.0000
vt 0.4912 0.3291 0.0000
vt 0.5208 0.4430 0.0000
# 149 texture coords

g missile_01
usemtl 08___Default
s 8
f 1/1/1 2/2/2 3/3/3 
f 1/1/1 4/4/4 2/2/2 
f 1/1/1 5/5/5 4/4/4 
f 1/1/1 6/6/6 5/5/5 
f 1/1/1 7/7/7 6/6/6 
f 1/1/1 8/8/8 7/7/7 
f 1/1/1 9/9/9 8/8/8 
f 1/1/1 10/10/10 9/9/9 
f 1/1/1 11/11/11 10/10/10 
f 1/1/1 12/12/12 11/11/11 
f 1/1/1 13/13/13 12/12/12 
f 1/1/1 3/3/3 13/13/13 
f 3/14/3 2/15/2 14/16/14 15/17/15 
f 2/18/2 4/19/4 16/20/16 14/21/14 
f 4/22/4 5/23/5 17/24/17 16/25/16 
f 5/23/5 6/26/6 18/27/18 17/24/17 
f 6/28/6 7/29/7 19/30/19 18/31/18 
f 7/32/7 8/33/8 20/34/20 19/35/19 
f 8/33/8 9/36/9 21/37/21 20/34/20 
f 9/38/9 10/39/10 22/40/22 21/41/21 
f 10/42/10 11/43/11 23/44/23 22/45/22 
f 11/43/11 12/46/12 24/47/24 23/44/23 
f 12/48/12 13/49/13 25/50/25 24/51/24 
f 13/52/13 3/14/3 15/17/15 25/53/25 
f 15/17/15 14/16/14 26/54/26 27/55/27 
f 14/21/14 16/20/16 28/56/28 26/57/26 
f 16/25/16 17/24/17 29/58/29 28/59/28 
f 17/24/17 18/27/18 30/60/30 29/58/29 
f 18/31/18 19/30/19 31/61/31 30/62/30 
f 19/35/19 20/34/20 32/63/32 31/64/31 
f 20/34/20 21/37/21 33/65/33 32/63/32 
f 21/41/21 22/40/22 34/66/34 33/67/33 
f 22/45/22 23/44/23 35/68/35 34/69/34 
f 23/44/23 24/47/24 36/70/36 35/68/35 
f 24/51/24 25/50/25 37/71/37 36/72/36 
f 25/53/25 15/17/15 27/55/27 37/73/37 
f 27/74/27 26/75/26 38/76/38 39/77/39 
f 26/75/26 28/78/28 40/79/40 38/76/38 
f 28/80/28 29/81/29 41/82/41 40/83/40 
f 29/81/29 30/84/30 42/85/42 41/82/41 
f 30/86/30 31/87/31 43/88/43 42/89/42 
f 31/87/31 32/90/32 44/91/44 43/88/43 
f 32/90/32 33/92/33 45/93/45 44/91/44 
f 33/92/33 34/94/34 46/95/46 45/93/45 
f 34/96/34 35/97/35 47/98/47 46/99/46 
f 35/97/35 36/100/36 48/101/48 47/98/47 
f 36/100/36 37/102/37 49/103/49 48/101/48 
f 37/104/37 27/74/27 39/77/39 49/105/49 
f 39/77/39 38/76/38 50/106/38 51/107/50 
f 38/76/38 40/79/40 52/108/40 50/106/38 
f 40/83/40 41/82/41 53/109/41 52/110/40 
f 41/82/41 42/85/42 54/111/42 53/109/41 
f 42/89/42 43/88/43 55/112/43 54/113/42 
f 43/88/43 44/91/44 56/114/51 55/112/43 
f 44/91/44 45/93/45 57/115/45 56/114/51 
f 45/93/45 46/95/46 58/116/46 57/115/45 
f 46/99/46 47/98/47 59/117/47 58/118/46 
f 47/98/47 48/101/48 60/119/48 59/117/47 
f 48/101/48 49/103/49 61/120/49 60/119/48 
f 49/105/49 39/77/39 51/107/50 61/121/49 
f 51/107/50 50/106/38 62/122/38 63/123/50 
f 50/106/38 52/108/40 64/124/40 62/122/38 
f 52/110/40 53/109/41 65/125/41 64/126/40 
f 53/109/41 54/111/42 66/127/42 65/125/41 
f 54/113/42 55/112/43 67/128/43 66/129/42 
f 55/112/43 56/114/51 68/130/51 67/128/43 
f 56/114/51 57/115/45 69/131/45 68/130/51 
f 57/115/45 58/116/46 70/132/46 69/131/45 
f 58/118/46 59/117/47 71/133/47 70/134/46 
f 59/117/47 60/119/48 72/135/48 71/133/47 
f 60/119/48 61/120/49 73/136/49 72/135/48 
f 61/121/49 51/107/50 63/123/50 73/137/49 
s 1
f 62/138/52 64/139/52 65/140/52 73/141/52 
f 65/140/52 66/142/52 67/143/52 69/144/52 
f 67/143/52 68/145/52 69/144/52 
f 69/144/52 70/146/52 71/147/52 73/141/52 
f 71/147/52 72/148/52 73/141/52 
f 65/140/52 69/144/52 73/141/52 
f 63/149/52 62/138/52 73/141/52 
# 63 polygons - 16 triangles

