# 3ds Max Wavefront OBJ Exporter v0.97b - (c)2007 guruware
# File Created: 09.03.2017 15:24:38

mtllib battleship_02.mtl

#
# object battleship_02
#

v  -3384.6152 455.5869 442.1764
v  -3384.6152 -544.4131 442.1766
v  -3384.6152 -544.4132 -357.8234
v  -3384.6152 455.5868 -222.0859
v  -3384.6152 319.0025 -357.8235
v  -3999.9998 455.5869 442.1763
v  -4000.0000 -544.4131 442.1765
v  -3999.9998 -544.4132 -357.8235
v  -4000.0000 319.0025 -357.8237
v  -4000.0000 455.5868 -222.0861
v  -4000.0000 319.0026 -357.8237
v  -4000.0000 -544.4132 -357.8235
v  -4000.0000 455.5869 442.1764
v  -4000.0000 -544.4131 442.1764
v  -2153.8467 455.5864 442.1766
v  -2153.8467 -544.4136 442.1768
v  -2153.8467 -544.4137 -357.8232
v  -2153.8467 455.5863 -222.0858
v  -2153.8467 319.0020 -357.8234
v  -2769.2314 455.5864 442.1765
v  -2769.2314 -544.4136 442.1767
v  -3384.6157 455.5864 442.1763
v  -3384.6155 -544.4136 442.1765
v  -2769.2314 -544.4137 -357.8233
v  -2769.2314 319.0020 -357.8235
v  -2769.2314 319.0020 -442.1764
v  -2769.2314 -544.4137 -442.1762
v  -3384.6155 -544.4137 -442.1763
v  -3384.6150 319.0020 -442.1765
v  -3384.6157 -544.4137 -357.8235
v  -2769.2314 455.5863 -222.0859
v  -2769.2314 544.4136 442.1765
v  -2769.2314 544.4135 -222.0858
v  -3384.6152 544.4135 -222.0859
v  -3384.6157 544.4136 442.1764
v  -2797.5273 388.7229 -194.9473
v  -2797.5273 292.2798 -290.7926
v  -3356.3191 292.2798 -290.7927
v  -3356.3191 388.7229 -194.9474
v  -3384.6155 319.0021 -357.8237
v  -3384.6155 455.5863 -222.0861
v  -3356.3191 339.0726 -337.8774
v  -2797.5273 339.0726 -337.8773
v  -3356.3191 435.5157 -242.0321
v  -2797.5273 435.5157 -242.0320
v  -923.0776 455.5864 442.1765
v  -923.0776 -544.4136 442.1767
v  -923.0776 -544.4137 -357.8233
v  -923.0776 455.5863 -222.0858
v  -923.0776 319.0020 -357.8234
v  -1538.4619 455.5864 442.1765
v  -1538.4624 -544.4136 442.1766
v  -2153.8467 455.5864 442.1762
v  -2153.8467 -544.4136 442.1764
v  -1538.4619 -544.4137 -357.8234
v  -1538.4624 319.0020 -357.8235
v  -1538.4624 319.0020 -442.1765
v  -1538.4619 -544.4137 -442.1763
v  -2153.8467 -544.4137 -442.1764
v  -2153.8462 319.0020 -442.1765
v  -2153.8467 -544.4137 -357.8236
v  -1538.4624 455.5863 -222.0859
v  -1538.4619 544.4136 442.1765
v  -1538.4624 544.4135 -222.0859
v  -2153.8462 544.4135 -222.0860
v  -2153.8467 544.4136 442.1764
v  -1566.7588 388.7229 -194.9474
v  -1566.7588 292.2798 -290.7927
v  -2125.5498 292.2798 -290.7927
v  -2125.5498 388.7229 -194.9474
v  -2153.8467 319.0021 -357.8237
v  -2153.8467 455.5863 -222.0861
v  -2125.5498 339.0726 -337.8774
v  -1566.7588 339.0726 -337.8774
v  -2125.5498 435.5157 -242.0322
v  -1566.7588 435.5157 -242.0321
v  307.6914 455.5864 442.1765
v  307.6914 -544.4136 442.1767
v  307.6914 -544.4137 -357.8234
v  307.6914 455.5863 -222.0859
v  307.6914 319.0020 -357.8235
v  -307.6929 455.5864 442.1764
v  -307.6934 -544.4136 442.1766
v  -923.0771 455.5864 442.1762
v  -923.0771 -544.4136 442.1764
v  -307.6929 -544.4137 -357.8234
v  -307.6934 319.0020 -357.8235
v  -307.6934 319.0020 -442.1765
v  -307.6929 -544.4137 -442.1763
v  -923.0771 -544.4137 -442.1765
v  -923.0771 319.0020 -442.1766
v  -923.0771 -544.4137 -357.8237
v  -307.6934 455.5863 -222.0860
v  -307.6929 544.4136 442.1764
v  -307.6934 544.4135 -222.0859
v  -923.0771 544.4135 -222.0861
v  -923.0771 544.4136 442.1763
v  -335.9893 388.7229 -194.9474
v  -335.9893 292.2798 -290.7927
v  -894.7808 292.2798 -290.7928
v  -894.7808 388.7229 -194.9475
v  -923.0771 319.0021 -357.8238
v  -923.0771 455.5863 -222.0862
v  -894.7808 339.0726 -337.8775
v  -335.9893 339.0726 -337.8774
v  -894.7808 435.5157 -242.0322
v  -335.9893 435.5157 -242.0322
v  1538.4609 455.5864 442.1764
v  1538.4609 -544.4136 442.1766
v  1538.4609 -544.4137 -357.8234
v  1538.4609 455.5863 -222.0859
v  1538.4609 319.0020 -357.8235
v  923.0762 455.5864 442.1763
v  923.0762 -544.4136 442.1765
v  307.6919 455.5864 442.1761
v  307.6924 -544.4136 442.1763
v  923.0762 -544.4137 -357.8235
v  923.0762 319.0020 -357.8236
v  923.0762 319.0020 -442.1765
v  923.0762 -544.4137 -442.1764
v  307.6919 -544.4137 -442.1765
v  307.6924 319.0020 -442.1766
v  307.6919 -544.4137 -357.8237
v  923.0762 455.5863 -222.0861
v  923.0762 544.4136 442.1763
v  923.0762 544.4135 -222.0860
v  307.6924 544.4135 -222.0861
v  307.6919 544.4136 442.1762
v  894.7803 388.7229 -194.9475
v  894.7803 292.2798 -290.7927
v  335.9883 292.2798 -290.7928
v  335.9883 388.7229 -194.9476
v  307.6924 319.0021 -357.8239
v  307.6924 455.5863 -222.0862
v  335.9883 339.0726 -337.8776
v  894.7803 339.0726 -337.8775
v  335.9883 435.5157 -242.0323
v  894.7803 435.5157 -242.0322
v  2769.2305 455.5864 442.1764
v  2769.2305 -544.4136 442.1765
v  2769.2305 -544.4137 -357.8235
v  2769.2305 455.5863 -222.0860
v  2769.2305 319.0020 -357.8236
v  2153.8457 455.5864 442.1763
v  2153.8457 -544.4136 442.1765
v  1538.4609 455.5864 442.1761
v  1538.4619 -544.4136 442.1762
v  2153.8457 -544.4137 -357.8235
v  2153.8457 319.0020 -357.8237
v  2153.8457 319.0020 -442.1766
v  2153.8457 -544.4137 -442.1765
v  1538.4609 -544.4137 -442.1766
v  1538.4619 319.0020 -442.1767
v  1538.4609 -544.4137 -357.8238
v  2153.8457 455.5863 -222.0861
v  2153.8457 544.4136 442.1763
v  2153.8457 544.4135 -222.0861
v  1538.4619 544.4135 -222.0861
v  1538.4609 544.4136 442.1762
v  2125.5498 388.7229 -194.9476
v  2125.5498 292.2798 -290.7928
v  1566.7578 292.2798 -290.7929
v  1566.7578 388.7229 -194.9476
v  1538.4619 319.0021 -357.8239
v  1538.4619 455.5863 -222.0863
v  1566.7578 339.0726 -337.8776
v  2125.5498 339.0726 -337.8775
v  1566.7578 435.5157 -242.0323
v  2125.5498 435.5157 -242.0323
v  4000.0000 455.5864 442.1763
v  4000.0000 -544.4136 442.1765
v  4000.0000 -544.4137 -357.8235
v  4000.0000 455.5863 -222.0861
v  4000.0000 319.0020 -357.8237
v  3384.6152 455.5864 442.1762
v  3384.6152 -544.4136 442.1764
v  2769.2305 455.5864 442.1760
v  2769.2305 -544.4136 442.1762
v  3384.6152 -544.4137 -357.8236
v  3384.6152 319.0020 -357.8237
v  3384.6152 319.0020 -442.1766
v  3384.6152 -544.4137 -442.1765
v  2769.2305 -544.4137 -442.1766
v  2769.2305 319.0020 -442.1768
v  2769.2305 -544.4137 -357.8239
v  3384.6152 455.5863 -222.0862
v  3384.6152 544.4136 442.1762
v  3384.6152 544.4135 -222.0861
v  2769.2305 544.4135 -222.0862
v  2769.2305 544.4136 442.1761
v  3356.3184 388.7229 -194.9476
v  3356.3184 292.2798 -290.7928
v  2797.5273 292.2798 -290.7930
v  2797.5273 388.7229 -194.9477
v  2769.2305 319.0021 -357.8240
v  2769.2305 455.5863 -222.0864
v  2797.5273 339.0726 -337.8777
v  3356.3184 339.0726 -337.8776
v  2797.5273 435.5157 -242.0324
v  3356.3184 435.5157 -242.0323
# 200 vertices

vn 1.0000 0.0000 0.0000
vn -0.0000 0.0000 1.0000
vn 0.0000 -0.0000 -1.0000
vn -0.0000 -1.0000 0.0000
vn 0.0000 1.0000 -0.0000
vn 0.0000 0.7049 -0.7093
vn -1.0000 0.0000 -0.0000
vn -0.0000 -0.0000 1.0000
vn 0.0000 0.0000 -1.0000
vn -0.0000 0.7093 0.7049
vn 0.0000 -0.7093 -0.7049
vn -1.0000 -0.0000 -0.0000
vn -1.0000 -0.0000 0.0000
vn 1.0000 0.0000 -0.0000
# 14 vertex normals

vt 0.3216 0.9881 0.0000
vt 0.0100 0.9881 0.0000
vt 0.0100 0.7388 0.0000
vt 0.3216 0.7811 0.0000
vt 0.2790 0.7388 0.0000
vt 0.3935 0.0100 0.0000
vt 0.3935 0.3216 0.0000
vt 0.2017 0.3216 0.0000
vt 0.2017 0.0100 0.0000
vt 0.3935 0.4446 0.0000
vt 0.3935 0.7137 0.0000
vt 0.2017 0.7137 0.0000
vt 0.2017 0.4446 0.0000
vt 0.8021 0.0363 0.0000
vt 0.8021 0.2856 0.0000
vt 0.6104 0.2856 0.0000
vt 0.6104 0.0363 0.0000
vt 0.7830 0.3744 0.0000
vt 0.9900 0.3744 0.0000
vt 0.9900 0.5661 0.0000
vt 0.7830 0.5661 0.0000
vt 0.3935 0.4021 0.0000
vt 0.2017 0.4021 0.0000
vt 0.0100 0.3216 0.0000
vt 0.0100 0.0100 0.0000
vt 0.6877 0.8668 0.0000
vt 0.4186 0.8668 0.0000
vt 0.4186 0.6751 0.0000
vt 0.6877 0.6751 0.0000
vt 0.4186 0.2856 0.0000
vt 0.4186 0.0363 0.0000
vt 0.7212 0.6751 0.0000
vt 0.9281 0.6751 0.0000
vt 0.9281 0.8668 0.0000
vt 0.7212 0.8668 0.0000
vt 0.1474 0.5396 0.0000
vt 0.1897 0.5396 0.0000
vt 0.1897 0.7137 0.0000
vt 0.1474 0.7137 0.0000
vt 0.4186 0.0100 0.0000
vt 0.6104 0.0100 0.0000
vt 0.7579 0.4007 0.0000
vt 0.4889 0.4007 0.0000
vt 0.4889 0.3744 0.0000
vt 0.7579 0.3744 0.0000
vt 0.0766 0.7137 0.0000
vt 0.0766 0.5219 0.0000
vt 0.1029 0.5219 0.0000
vt 0.1029 0.7137 0.0000
vt 0.6877 0.3370 0.0000
vt 0.4186 0.3370 0.0000
vt 0.4186 0.3107 0.0000
vt 0.6877 0.3107 0.0000
vt 0.2017 0.3493 0.0000
vt 0.0100 0.3493 0.0000
vt 0.1113 0.7137 0.0000
vt 0.1113 0.5067 0.0000
vt 0.1390 0.5067 0.0000
vt 0.1390 0.7137 0.0000
vt 0.0100 0.4021 0.0000
vt 0.0100 0.3744 0.0000
vt 0.2017 0.3744 0.0000
vt 0.4463 0.4430 0.0000
vt 0.4463 0.6500 0.0000
vt 0.4186 0.6500 0.0000
vt 0.4186 0.4430 0.0000
vt 0.0100 0.4446 0.0000
vt 0.0188 0.4384 0.0000
vt 0.1929 0.4384 0.0000
vt 0.0188 0.4083 0.0000
vt 0.1929 0.4083 0.0000
vt 0.0683 0.5396 0.0000
vt 0.0683 0.7137 0.0000
vt 0.0476 0.7137 0.0000
vt 0.0476 0.5396 0.0000
vt 0.1897 0.4890 0.0000
vt 0.1858 0.5312 0.0000
vt 0.1652 0.5293 0.0000
vt 0.1691 0.4871 0.0000
vt 0.4186 0.9003 0.0000
vt 0.5927 0.9003 0.0000
vt 0.5927 0.9150 0.0000
vt 0.4186 0.9150 0.0000
vt 0.1029 0.4712 0.0000
vt 0.1020 0.5135 0.0000
vt 0.0813 0.5131 0.0000
vt 0.0823 0.4707 0.0000
vt 0.7579 0.6500 0.0000
# 88 texture coords

g battleship_02
usemtl battleship_02
s 4
f 1/1/1 2/2/1 3/3/1 4/4/1 
f 3/3/1 5/5/1 4/4/1 
s 1
f 2/6/2 1/7/2 6/8/2 7/9/2 
f 5/10/3 3/11/3 8/12/3 9/13/3 
s 2
f 3/14/4 2/15/4 7/16/4 8/17/4 
f 1/18/5 4/19/5 10/20/5 6/21/5 
s 8
f 4/22/6 5/10/6 9/13/6 10/23/6 
s 4
f 10/4/7 11/5/7 12/3/7 13/1/7 
f 13/1/7 12/3/7 14/2/7 
f 15/1/1 16/2/1 17/3/1 18/4/1 
f 17/3/1 19/5/1 18/4/1 
s 1
f 16/6/2 15/7/2 20/8/2 21/9/2 
f 21/9/2 20/8/2 22/24/2 23/25/2 
f 19/10/3 17/11/3 24/12/3 25/13/3 
f 26/26/3 27/27/3 28/28/3 29/29/3 
s 2
f 17/14/4 16/15/4 21/16/4 24/17/4 
f 24/17/4 21/16/4 23/30/4 30/31/4 
f 15/18/5 18/19/5 31/20/5 20/21/5 
f 32/32/5 33/33/5 34/34/5 35/35/5 
s 8
f 18/22/6 19/10/6 25/13/6 31/23/6 
f 36/36/6 37/37/6 38/38/6 39/39/6 
s off
f 24/17/4 30/31/4 28/40/4 27/41/4 
f 30/42/7 40/43/7 29/44/7 28/45/7 
f 40/46/5 25/47/5 26/48/5 29/49/5 
f 25/50/1 24/51/1 27/52/1 26/53/1 
f 22/24/8 20/8/8 32/54/8 35/55/8 
f 20/56/1 31/57/1 33/58/1 32/59/1 
f 31/23/9 41/60/9 34/61/9 33/62/9 
f 41/63/7 22/64/7 35/65/7 34/66/7 
f 25/13/6 40/67/6 42/68/6 43/69/6 
f 40/67/6 41/60/6 44/70/6 42/68/6 
f 41/60/6 31/23/6 45/71/6 44/70/6 
f 31/23/6 25/13/6 43/69/6 45/71/6 
f 43/72/10 42/73/10 38/74/10 37/75/10 
f 42/76/1 44/77/1 39/78/1 38/79/1 
f 44/80/11 45/81/11 36/82/11 39/83/11 
f 45/84/7 43/85/7 37/86/7 36/87/7 
s 4
f 41/63/7 40/43/7 30/42/12 22/64/7 
f 22/64/7 30/42/12 23/88/13 
f 46/1/1 47/2/1 48/3/1 49/4/1 
f 48/3/1 50/5/1 49/4/1 
s 1
f 47/6/2 46/7/2 51/8/2 52/9/2 
f 52/9/2 51/8/2 53/24/2 54/25/2 
f 50/10/3 48/11/3 55/12/3 56/13/3 
f 57/26/3 58/27/3 59/28/3 60/29/3 
s 2
f 48/14/4 47/15/4 52/16/4 55/17/4 
f 55/17/4 52/16/4 54/30/4 61/31/4 
f 46/18/5 49/19/5 62/20/5 51/21/5 
f 63/32/5 64/33/5 65/34/5 66/35/5 
s 8
f 49/22/6 50/10/6 56/13/6 62/23/6 
f 67/36/6 68/37/6 69/38/6 70/39/6 
s off
f 55/17/4 61/31/4 59/40/4 58/41/4 
f 61/42/7 71/43/7 60/44/7 59/45/7 
f 71/46/5 56/47/5 57/48/5 60/49/5 
f 56/50/1 55/51/1 58/52/1 57/53/1 
f 53/24/8 51/8/8 63/54/8 66/55/8 
f 51/56/14 62/57/14 64/58/14 63/59/14 
f 62/23/9 72/60/9 65/61/9 64/62/9 
f 72/63/7 53/64/7 66/65/7 65/66/7 
f 56/13/6 71/67/6 73/68/6 74/69/6 
f 71/67/6 72/60/6 75/70/6 73/68/6 
f 72/60/6 62/23/6 76/71/6 75/70/6 
f 62/23/6 56/13/6 74/69/6 76/71/6 
f 74/72/10 73/73/10 69/74/10 68/75/10 
f 73/76/1 75/77/1 70/78/1 69/79/1 
f 75/80/11 76/81/11 67/82/11 70/83/11 
f 76/84/7 74/85/7 68/86/7 67/87/7 
s 4
f 72/63/7 71/43/7 61/42/7 53/64/7 
f 53/64/7 61/42/7 54/88/7 
f 77/1/1 78/2/1 79/3/1 80/4/1 
f 79/3/1 81/5/1 80/4/1 
s 1
f 78/6/2 77/7/2 82/8/2 83/9/2 
f 83/9/2 82/8/2 84/24/2 85/25/2 
f 81/10/3 79/11/3 86/12/3 87/13/3 
f 88/26/3 89/27/3 90/28/3 91/29/3 
s 2
f 79/14/4 78/15/4 83/16/4 86/17/4 
f 86/17/4 83/16/4 85/30/4 92/31/4 
f 77/18/5 80/19/5 93/20/5 82/21/5 
f 94/32/5 95/33/5 96/34/5 97/35/5 
s 8
f 80/22/6 81/10/6 87/13/6 93/23/6 
f 98/36/6 99/37/6 100/38/6 101/39/6 
s off
f 86/17/4 92/31/4 90/40/4 89/41/4 
f 92/42/7 102/43/7 91/44/7 90/45/7 
f 102/46/5 87/47/5 88/48/5 91/49/5 
f 87/50/1 86/51/1 89/52/1 88/53/1 
f 84/24/8 82/8/8 94/54/8 97/55/8 
f 82/56/14 93/57/14 95/58/14 94/59/14 
f 93/23/9 103/60/9 96/61/9 95/62/9 
f 103/63/7 84/64/7 97/65/7 96/66/7 
f 87/13/6 102/67/6 104/68/6 105/69/6 
f 102/67/6 103/60/6 106/70/6 104/68/6 
f 103/60/6 93/23/6 107/71/6 106/70/6 
f 93/23/6 87/13/6 105/69/6 107/71/6 
f 105/72/10 104/73/10 100/74/10 99/75/10 
f 104/76/1 106/77/1 101/78/1 100/79/1 
f 106/80/11 107/81/11 98/82/11 101/83/11 
f 107/84/7 105/85/7 99/86/7 98/87/7 
s 4
f 103/63/7 102/43/7 92/42/7 84/64/7 
f 84/64/7 92/42/7 85/88/7 
f 108/1/1 109/2/1 110/3/1 111/4/1 
f 110/3/1 112/5/1 111/4/1 
s 1
f 109/6/2 108/7/2 113/8/2 114/9/2 
f 114/9/2 113/8/2 115/24/2 116/25/2 
f 112/10/3 110/11/3 117/12/3 118/13/3 
f 119/26/3 120/27/3 121/28/3 122/29/3 
s 2
f 110/14/4 109/15/4 114/16/4 117/17/4 
f 117/17/4 114/16/4 116/30/4 123/31/4 
f 108/18/5 111/19/5 124/20/5 113/21/5 
f 125/32/5 126/33/5 127/34/5 128/35/5 
s 8
f 111/22/6 112/10/6 118/13/6 124/23/6 
f 129/36/6 130/37/6 131/38/6 132/39/6 
s off
f 117/17/4 123/31/4 121/40/4 120/41/4 
f 123/42/7 133/43/7 122/44/7 121/45/7 
f 133/46/5 118/47/5 119/48/5 122/49/5 
f 118/50/1 117/51/1 120/52/1 119/53/1 
f 115/24/8 113/8/8 125/54/8 128/55/8 
f 113/56/1 124/57/1 126/58/1 125/59/1 
f 124/23/9 134/60/9 127/61/9 126/62/9 
f 134/63/7 115/64/7 128/65/7 127/66/7 
f 118/13/6 133/67/6 135/68/6 136/69/6 
f 133/67/6 134/60/6 137/70/6 135/68/6 
f 134/60/6 124/23/6 138/71/6 137/70/6 
f 124/23/6 118/13/6 136/69/6 138/71/6 
f 136/72/10 135/73/10 131/74/10 130/75/10 
f 135/76/1 137/77/1 132/78/1 131/79/1 
f 137/80/11 138/81/11 129/82/11 132/83/11 
f 138/84/7 136/85/7 130/86/7 129/87/7 
s 4
f 134/63/7 133/43/7 123/42/12 115/64/7 
f 115/64/7 123/42/12 116/88/13 
f 139/1/1 140/2/1 141/3/1 142/4/1 
f 141/3/1 143/5/1 142/4/1 
s 1
f 140/6/2 139/7/2 144/8/2 145/9/2 
f 145/9/2 144/8/2 146/24/2 147/25/2 
f 143/10/3 141/11/3 148/12/3 149/13/3 
f 150/26/3 151/27/3 152/28/3 153/29/3 
s 2
f 141/14/4 140/15/4 145/16/4 148/17/4 
f 148/17/4 145/16/4 147/30/4 154/31/4 
f 139/18/5 142/19/5 155/20/5 144/21/5 
f 156/32/5 157/33/5 158/34/5 159/35/5 
s 8
f 142/22/6 143/10/6 149/13/6 155/23/6 
f 160/36/6 161/37/6 162/38/6 163/39/6 
s off
f 148/17/4 154/31/4 152/40/4 151/41/4 
f 154/42/7 164/43/7 153/44/7 152/45/7 
f 164/46/5 149/47/5 150/48/5 153/49/5 
f 149/50/1 148/51/1 151/52/1 150/53/1 
f 146/24/8 144/8/8 156/54/8 159/55/8 
f 144/56/1 155/57/1 157/58/1 156/59/1 
f 155/23/9 165/60/9 158/61/9 157/62/9 
f 165/63/7 146/64/7 159/65/7 158/66/7 
f 149/13/6 164/67/6 166/68/6 167/69/6 
f 164/67/6 165/60/6 168/70/6 166/68/6 
f 165/60/6 155/23/6 169/71/6 168/70/6 
f 155/23/6 149/13/6 167/69/6 169/71/6 
f 167/72/10 166/73/10 162/74/10 161/75/10 
f 166/76/1 168/77/1 163/78/1 162/79/1 
f 168/80/11 169/81/11 160/82/11 163/83/11 
f 169/84/7 167/85/7 161/86/7 160/87/7 
s 4
f 165/63/7 164/43/7 154/42/12 146/64/7 
f 146/64/7 154/42/12 147/88/13 
f 170/1/1 171/2/1 172/3/1 173/4/1 
f 172/3/1 174/5/1 173/4/1 
s 1
f 171/6/2 170/7/2 175/8/2 176/9/2 
f 176/9/2 175/8/2 177/24/2 178/25/2 
f 174/10/3 172/11/3 179/12/3 180/13/3 
f 181/26/3 182/27/3 183/28/3 184/29/3 
s 2
f 172/14/4 171/15/4 176/16/4 179/17/4 
f 179/17/4 176/16/4 178/30/4 185/31/4 
f 170/18/5 173/19/5 186/20/5 175/21/5 
f 187/32/5 188/33/5 189/34/5 190/35/5 
s 8
f 173/22/6 174/10/6 180/13/6 186/23/6 
f 191/36/6 192/37/6 193/38/6 194/39/6 
s off
f 179/17/4 185/31/4 183/40/4 182/41/4 
f 185/42/7 195/43/7 184/44/7 183/45/7 
f 195/46/5 180/47/5 181/48/5 184/49/5 
f 180/50/1 179/51/1 182/52/1 181/53/1 
f 177/24/8 175/8/8 187/54/8 190/55/8 
f 175/56/1 186/57/1 188/58/1 187/59/1 
f 186/23/9 196/60/9 189/61/9 188/62/9 
f 196/63/7 177/64/7 190/65/7 189/66/7 
f 180/13/6 195/67/6 197/68/6 198/69/6 
f 195/67/6 196/60/6 199/70/6 197/68/6 
f 196/60/6 186/23/6 200/71/6 199/70/6 
f 186/23/6 180/13/6 198/69/6 200/71/6 
f 198/72/10 197/73/10 193/74/10 192/75/10 
f 197/76/1 199/77/1 194/78/1 193/79/1 
f 199/80/11 200/81/11 191/82/11 194/83/11 
f 200/84/7 198/85/7 192/86/7 191/87/7 
s 4
f 196/63/7 195/43/7 185/42/7 177/64/7 
f 177/64/7 185/42/7 178/88/7 
# 175 polygons - 14 triangles

